<svg width="28" height="11" viewBox="0 0 28 11" fill="none" xmlns="http://www.w3.org/2000/svg">
<path d="M3.47199 -1.3113e-05C4.13465 -1.3113e-05 4.69465 0.125987 5.15199 0.377986C5.61865 0.620653 5.99199 0.956653 6.27199 1.38599C6.56132 1.80599 6.77132 2.29599 6.90199 2.85599C7.03265 3.41599 7.09799 4.01332 7.09799 4.64799C7.09799 5.42265 7.01399 6.14599 6.84599 6.81799C6.68732 7.48065 6.44465 8.06399 6.11799 8.56799C5.80065 9.06265 5.39465 9.44999 4.89999 9.72999C4.40532 10.0007 3.82199 10.136 3.14999 10.136C2.63665 10.136 2.13732 10.0613 1.65199 9.91199C1.16665 9.76265 0.727987 9.54799 0.335987 9.26799L1.20399 8.02199C1.50265 8.22732 1.81999 8.38132 2.15599 8.48399C2.49199 8.57732 2.80465 8.62399 3.09399 8.62399C3.86865 8.62399 4.47532 8.28799 4.91399 7.61599C5.35265 6.93465 5.55332 5.87532 5.51599 4.43799L5.86599 4.68999C5.65132 5.21265 5.31065 5.63265 4.84399 5.94999C4.38665 6.26732 3.84065 6.42599 3.20599 6.42599C2.58065 6.42599 2.02532 6.28599 1.53999 6.00599C1.06399 5.71665 0.685987 5.32465 0.405987 4.82999C0.13532 4.33532 -1.3411e-05 3.77999 -1.3411e-05 3.16399C-1.3411e-05 2.54799 0.139987 2.00199 0.419987 1.52599C0.70932 1.04999 1.11532 0.676653 1.63799 0.405987C2.16065 0.13532 2.77199 -1.3113e-05 3.47199 -1.3113e-05ZM3.45799 1.46999C3.12199 1.46999 2.82332 1.54932 2.56199 1.70799C2.30065 1.85732 2.09532 2.06265 1.94599 2.32399C1.79665 2.58532 1.72199 2.88865 1.72199 3.23399C1.72199 3.56999 1.79665 3.87332 1.94599 4.14399C2.09532 4.41465 2.30065 4.62932 2.56199 4.78799C2.82332 4.93732 3.12199 5.01199 3.45799 5.01199C3.80332 5.01199 4.10665 4.93732 4.36799 4.78799C4.62932 4.62932 4.83465 4.41465 4.98399 4.14399C5.14265 3.87332 5.22199 3.56999 5.22199 3.23399C5.22199 2.88865 5.14265 2.58532 4.98399 2.32399C4.83465 2.06265 4.62932 1.85732 4.36799 1.70799C4.10665 1.54932 3.80332 1.46999 3.45799 1.46999ZM9.66239 5.02599C9.38239 5.02599 9.13973 4.92332 8.93439 4.71799C8.72906 4.51265 8.62639 4.26999 8.62639 3.98999C8.62639 3.70999 8.72906 3.46732 8.93439 3.26199C9.13973 3.05665 9.38239 2.95399 9.66239 2.95399C9.94239 2.95399 10.1851 3.05665 10.3904 3.26199C10.5957 3.46732 10.6984 3.70999 10.6984 3.98999C10.6984 4.26999 10.5957 4.51265 10.3904 4.71799C10.1851 4.92332 9.94239 5.02599 9.66239 5.02599ZM9.67639 9.99599C9.39639 9.99599 9.15373 9.89332 8.94839 9.68799C8.74306 9.48265 8.64039 9.23999 8.64039 8.95999C8.64039 8.67065 8.74306 8.42799 8.94839 8.23199C9.15373 8.02665 9.39639 7.92399 9.67639 7.92399C9.95639 7.92399 10.1991 8.02665 10.4044 8.23199C10.6097 8.42799 10.7124 8.67065 10.7124 8.95999C10.7124 9.23999 10.6097 9.48265 10.4044 9.68799C10.1991 9.89332 9.95639 9.99599 9.67639 9.99599ZM15.5853 10.136C15.0346 10.136 14.5353 10.0567 14.0873 9.89799C13.6393 9.72999 13.2613 9.49665 12.9533 9.19799C12.6546 8.89932 12.4399 8.55399 12.3093 8.16199L13.8633 7.62999C13.9473 7.75132 14.0499 7.89132 14.1713 8.04999C14.2926 8.20865 14.4559 8.34865 14.6613 8.46999C14.8759 8.58199 15.1466 8.63799 15.4733 8.63799C15.9866 8.63799 16.3926 8.49332 16.6913 8.20399C16.9899 7.91465 17.1393 7.54599 17.1393 7.09799C17.1393 6.78999 17.0553 6.51932 16.8873 6.28599C16.7286 6.05265 16.4766 5.87532 16.1313 5.75399C15.7953 5.62332 15.3613 5.55799 14.8293 5.55799H14.3393V4.35399H14.7733C15.3426 4.35399 15.8746 4.41932 16.3693 4.54999C16.8639 4.68065 17.2979 4.87665 17.6713 5.13799C18.0446 5.38999 18.3339 5.69799 18.5393 6.06199C18.7539 6.42599 18.8613 6.83665 18.8613 7.29399C18.8613 7.88199 18.7119 8.39065 18.4133 8.81999C18.1146 9.23999 17.7133 9.56665 17.2093 9.79999C16.7146 10.024 16.1733 10.136 15.5853 10.136ZM14.3393 5.26399V4.12999H14.8293C15.5293 4.12999 16.0566 4.01332 16.4113 3.77999C16.7659 3.53732 16.9433 3.20599 16.9433 2.78599C16.9433 2.54332 16.8826 2.32865 16.7613 2.14199C16.6399 1.94599 16.4673 1.79199 16.2433 1.67999C16.0193 1.55865 15.7579 1.49799 15.4593 1.49799C15.2633 1.49799 15.0673 1.53065 14.8713 1.59599C14.6753 1.66132 14.4933 1.76399 14.3253 1.90399C14.1666 2.03465 14.0313 2.22132 13.9193 2.46399L12.4073 1.94599C12.5473 1.52599 12.7713 1.17132 13.0793 0.881986C13.3873 0.592653 13.7513 0.37332 14.1713 0.223987C14.6006 0.0746534 15.0486 -1.3113e-05 15.5153 -1.3113e-05C16.1126 -1.3113e-05 16.6446 0.111987 17.1113 0.335987C17.5873 0.559987 17.9653 0.872653 18.2453 1.27399C18.5253 1.67532 18.6653 2.13265 18.6653 2.64599C18.6653 3.08465 18.5579 3.46732 18.3433 3.79399C18.1286 4.12065 17.8393 4.39599 17.4753 4.61999C17.1206 4.83465 16.7099 4.99799 16.2433 5.10999C15.7766 5.21265 15.2866 5.26399 14.7733 5.26399H14.3393ZM23.9535 10.136C23.1789 10.136 22.4882 9.92132 21.8815 9.49199C21.2842 9.05332 20.8129 8.45599 20.4675 7.69999C20.1315 6.93465 19.9635 6.05732 19.9635 5.06799C19.9635 4.07865 20.1315 3.20599 20.4675 2.44999C20.8129 1.68465 21.2795 1.08732 21.8675 0.657987C22.4649 0.21932 23.1555 -1.3113e-05 23.9395 -1.3113e-05C24.7235 -1.3113e-05 25.4142 0.21932 26.0115 0.657987C26.6182 1.08732 27.0895 1.68465 27.4255 2.44999C27.7709 3.20599 27.9435 4.07865 27.9435 5.06799C27.9435 6.05732 27.7709 6.93465 27.4255 7.69999C27.0895 8.45599 26.6229 9.05332 26.0255 9.49199C25.4282 9.92132 24.7375 10.136 23.9535 10.136ZM23.9535 8.56799C24.4015 8.56799 24.7982 8.41865 25.1435 8.11999C25.4982 7.82132 25.7735 7.41065 25.9695 6.88799C26.1655 6.35599 26.2635 5.74932 26.2635 5.06799C26.2635 4.37732 26.1655 3.77065 25.9695 3.24799C25.7735 2.71599 25.4982 2.30065 25.1435 2.00199C24.7982 1.70332 24.3969 1.55399 23.9395 1.55399C23.4915 1.55399 23.0949 1.70332 22.7495 2.00199C22.4042 2.30065 22.1335 2.71599 21.9375 3.24799C21.7415 3.77065 21.6435 4.37732 21.6435 5.06799C21.6435 5.74932 21.7415 6.35599 21.9375 6.88799C22.1335 7.41065 22.4042 7.82132 22.7495 8.11999C23.1042 8.41865 23.5055 8.56799 23.9535 8.56799Z" fill="#646864"/>
</svg>
